<?xml version="1.0" standalone="no"?>
<!DOCTYPE svg PUBLIC "-//W3C//DTD SVG 20010904//EN"
 "http://www.w3.org/TR/2001/REC-SVG-20010904/DTD/svg10.dtd">
<svg version="1.0" xmlns="http://www.w3.org/2000/svg"
 width="512.000000pt" height="512.000000pt" viewBox="0 0 512.000000 512.000000"
 preserveAspectRatio="xMidYMid meet">

<g transform="translate(0.000000,512.000000) scale(0.100000,-0.100000)"
fill="#000000" stroke="none">
<path d="M1983 4895 c-58 -25 -63 -47 -63 -310 0 -203 2 -241 17 -265 34 -58
116 -68 164 -21 l29 29 0 254 c0 281 -1 287 -66 314 -40 17 -41 17 -81 -1z"/>
<path d="M1049 4501 c-24 -24 -29 -38 -29 -77 l0 -48 178 -178 c175 -176 178
-178 221 -178 36 0 49 6 78 35 32 32 35 39 30 77 -5 39 -21 57 -184 220 -176
175 -180 178 -222 178 -34 0 -49 -6 -72 -29z"/>
<path d="M2717 4363 c-93 -93 -176 -183 -184 -201 -29 -68 23 -142 100 -142
40 0 47 6 221 180 l181 180 0 46 c0 39 -5 50 -33 75 -25 22 -42 29 -74 29 -40
0 -46 -5 -211 -167z"/>
<path d="M2014 3631 c-35 -15 -72 -68 -83 -121 -8 -35 -11 -430 -11 -1274 0
-1322 -2 -1276 53 -1357 28 -41 77 -75 131 -90 74 -21 141 -1 419 125 141 64
259 116 261 116 2 0 84 -176 182 -391 160 -352 183 -397 226 -440 66 -66 138
-92 238 -87 121 7 215 69 271 178 20 37 24 60 24 135 l0 90 -177 390 c-98 214
-174 392 -170 395 4 4 125 60 269 125 145 65 284 135 310 154 103 78 130 195
72 311 -30 59 -85 110 -928 877 -493 448 -915 826 -939 840 -46 28 -114 38
-148 24z"/>
<path d="M703 3615 c-33 -14 -63 -59 -63 -95 0 -37 30 -81 65 -96 26 -11 87
-14 255 -14 168 0 229 3 255 14 35 15 65 59 65 96 0 37 -30 81 -65 96 -48 20
-465 20 -512 -1z"/>
<path d="M2833 3614 c-29 -15 -63 -65 -63 -94 0 -30 34 -80 65 -94 46 -22 458
-23 509 -2 43 18 66 51 66 96 0 45 -23 78 -66 96 -51 21 -467 20 -511 -2z"/>
<path d="M1198 2842 l-178 -178 0 -48 c0 -39 5 -53 29 -77 23 -23 38 -29 72
-29 42 0 46 3 221 177 195 194 208 215 173 278 -20 38 -52 55 -103 55 -34 0
-48 -12 -214 -178z"/>
</g>
</svg>
